<?xml version="1.0" encoding="UTF-8"?>
<svg id="Layer_2" data-name="Layer 2" xmlns="http://www.w3.org/2000/svg" viewBox="0 0 254.42 130.14">
  <defs>
    <style>
      .cls-1 {
        fill: #233247;
      }
    </style>
  </defs>
  <g id="Layer_1-2" data-name="Layer 1">
    <path class="cls-1" d="M245.39,14.11C236.6,4.99,223.48.57,210.82.49L145.48,0c-3.14-.02-4.33,1.58-3.82,3.86.94,4.29,16.24.43,16.28,14.8l.12,91.97c.03,14.19-13.46,11.52-16.1,14.77-.47.57-.35,4.19.66,4.2,19.96.63,39.54.75,59.83.16,1.3-.03,1.34-5.23.28-5.61-5.96-2.14-16.56-.45-17.34-11.62-.82-11.73-.73-22.9,0-34.94,25.03,3.47,58.03.68,66.85-26.48,4.22-12.98,2.54-27.26-6.85-37ZM220.42,59.42c-8.32,11.88-23.87,11.97-35.27,8.18l.03-56.88c11.14-2.57,25.83-3.27,34.26,7.07,8.77,10.77,9.38,29.62.97,41.63Z"/>
    <path class="cls-1" d="M153.96,112.65c-6.19-.81-10.27-4.48-14.62-9.54,5.48-5.57,6.05-14.79,13.15-14.26.57-.57.78-2.25.19-2.69l-14.23.13c-.71,0-.59.97-.62,1.3-.04.4.43.87,1.11.98,5.65.94-.29,10.03-2.1,12.26-4.18-3.86-7.81-7.82-11.41-12.05,3.86-1.64,7.42-3.86,9.1-7.55,1.92-4.22-.19-8.76-4.28-10.34-3.79-1.46-7.48-1.31-11.33-.32-5.88,1.52-9.12,7.21-7.12,13.08.75,2.19,2.17,3.95,3.7,6.04-7.81,3.97-13.87,9.14-10.89,18.34,1.31,4.04,5.38,6.88,10.2,7.66,7,1.14,13.42-1.72,18.34-6.93,6.35,6.02,9.97,8.36,18.84,6.36.74-.17,1.48-.21,1.9-.53.35-.27.48-1.76.06-1.94ZM121.27,73.23c2.15-1.19,4.85-.84,6.45,1.37,1.55,2.13,1.86,4.92.76,7.44-.73,1.67-2.99,4.33-5.07,4.21-2.47-1.49-3.91-4.71-4.64-7.25-.73-2.54.6-4.71,2.49-5.76ZM126.4,109.64c-4.89,2.5-10.75.78-13.14-4.16-2.22-4.59-.11-10.74,4.9-12.96l12.9,14.07c-1.25,1.35-2.93,2.16-4.67,3.05Z"/>
    <path class="cls-1" d="M112.55,4.76c-.2,1.04-1.91,1.38-3,1.47-5.25.39-8.33,4.87-8.35,12.25l-.26,111.12c-3.71.19-8.46,1.23-12.32-.17L23.89,33.49c-.87.9-.94,2.38-.94,4.41l.13,72.3c.02,8.46,3.92,13.07,10.02,13.28.89.02,2.24.66,2.67,1.38.4.7.33,3.67-.46,3.67H.89c-.91,0-.96-3.03-.47-3.6,2.37-2.76,11.77-.35,11.83-14.49l.34-86.64c.02-4.26-.83-8.48-2.61-11.97C4.71,1.52-.94,12.21.13.24L27.9,0l62.47,92.14.18-72.77c.02-7.55-3.37-12.44-8.84-12.75-1.19-.7-2.67-.64-3.54-1.38-.78-.66-.94-4.77-.07-4.95l33.83-.12c1.21,0,.83,3.55.63,4.58Z"/>
  </g>
</svg>