<?xml version="1.0" encoding="UTF-8"?>
<svg id="Layer_1" data-name="Layer 1" xmlns="http://www.w3.org/2000/svg" viewBox="0 0 766 232.8">
  <defs>
    <style>
      .cls-1 {
        fill: #4c3ada;
      }
    </style>
  </defs>
  <g>
    <path class="cls-1" d="M566.8,227.64c0,2.83-3.23,3.66-4.98,3.62l-25.28-.56-.06-111.22c0-1.22,3.07-2.55,4.51-2.53l20.78.22c1.89.02,5.01,1.39,5.01,3.91v106.56Z"/>
    <path class="cls-1" d="M249.1,230.44l-7.31-57.89-17.83,57.74-24.38-.12-17.74-59.37c-1.83,5.72-2.05,10.57-2.68,15.96l-2.26,19.4-3.17,24.17h-27.34c-.01-5.72.17-9.93.7-15.05l3.79-36.57,4.18-41.29,2.07-20.17,32.33-.06,22.33,70.54,19.19-62.91c.84-2.75,2-5.42,3.46-7.55l26.61-.22c1.12,0,3.12.39,3.76.85.8.57,1.57,2.76,1.69,3.96l3.49,34.42,2.04,20.47,2.18,21.69,2.09,19.63c.43,4,.36,7.44.29,12.29l-27.49.08Z"/>
    <path class="cls-1" d="M508.2,169.69c7.86-10.9,8.93-25.36,2.15-36.54-5.74-9.47-14.78-16.3-26.12-16.35l-52.75-.17c-1.99-.01-4.09,2.24-4.09,4.25l.03,106.3c0,2.3,2.97,3.91,5.05,3.89l56.9-.45c16.18-.13,29.06-15.87,30.64-31.73,1.19-12.04-4.51-20.84-11.79-29.21ZM457.74,139.3l17.07.3c5.99.1,10.05,5.8,10.19,10.9.17,6.13-4.71,10.79-11.45,10.8h-16.06s.25-22,.25-22ZM475.07,208.21l-17.42-.24-.07-25.4,19.59.04c6.74.02,12.36,7.14,12,13-.49,7.72-6.83,12.7-14.09,12.6Z"/>
    <path class="cls-1" d="M350.92,114.75c-32.6,0-59.02,26.42-59.02,59.03s26.42,59.02,59.02,59.02,59.03-26.42,59.03-59.02-26.42-59.03-59.03-59.03ZM350.95,203.71c-16.51,0-29.9-13.39-29.9-29.91s13.39-29.9,29.9-29.9,29.91,13.38,29.91,29.9-13.39,29.91-29.91,29.91Z"/>
    <g>
      <path class="cls-1" d="M711.11,204.56h50.94c2.11,0,3.97,2,3.96,3.87l-.07,18.97c0,2.21-1.61,3.7-3.92,3.7l-77.48-.07c-.97,0-3.04-.48-3.33-1.23-.37-.94-.25-2.95-.25-4.63v-88.74s-.73-15.63-.73-15.63c-.06-1.24,2.1-4.14,3.39-4.14l80.26.05-.05,26.45-52.72.17-.15,18.54,40.93.22c-.05,5.91,3.68,22.81-3.55,22.81l-36.99.04-.23,19.62Z"/>
      <path class="cls-1" d="M663.36,206.97l.03,22.11c-.34.58-2.81,2.02-3.69,2.02l-71.02-.15-.1-111.93c2.94-2.33,6.66-2.32,10.2-2.16l18.73.89.07,85.74,42.27.03c1.37,0,3.51,1.93,3.51,3.44Z"/>
    </g>
  </g>
  <path class="cls-1" d="M80.82,103.2l-1.2-9.53-7.01,22.75c-2.76.57-7.15.53-10.07-.06l-7.22-22.6-3.12,22.91-11.1.2c.14-6.03.39-10.36,1.01-15.69l3.49-29.77,13.09-.04,8.84,28.13,8.45-27.88,13.28-.4,1.83,15.56,2.84,29.85-11.33.3-1.79-13.72Z"/>
  <path class="cls-1" d="M131.35,99.83l4.45-5.25c3.22-3.79,3.5-11.22.98-15.53-1.9-3.24-6.3-7.74-11.3-8.28-3.79-.4-22.36-1.39-23.6.68-.31.51-.77,2.3-.77,3.03l.02,42.01,12.41.53.17-14.82c.93-.28,3.59-.63,4.71-.62l8.27,15.25c4.25.12,8.27.05,13.38-.26l-8.71-16.74ZM124.19,90.26c-2.8,1.12-7.1,1.15-10.51.71l.1-10.36c4.98-.35,9.84-.71,12.12,4.02.61,1.27-.38,5.1-1.71,5.63Z"/>
  <path class="cls-1" d="M19.61,19.1l-.07,143.64,89.73.11c4.13-.19,7.58-.12,11.47.17l-.06,18.97-116.48-.04c-2.13,0-4.3-4.39-4.3-6.42V6.39C-.09,3.77,2.26,0,5.26,0h174.9c2.78,2.71,3.63,6.95,3.62,10.37l-.15,78.34-17.19.49c-.71.02-3.15-.67-3.05-1.24l.59-3.46-.06-65.33-144.29-.08Z"/>
</svg>