<?xml version="1.0" encoding="UTF-8"?>
<svg id="Layer_1" data-name="Layer 1" xmlns="http://www.w3.org/2000/svg" viewBox="0 0 860.39 277.31">
  <defs>
    <style>
      .cls-1 {
        fill: #253145;
      }
    </style>
  </defs>
  <g>
    <path class="cls-1" d="M518.25,277.34l-53.11-60.2c-.39,9.93-1.62,48.86,1.23,53.33,2.56,4,11.82,1.29,9.31,6.67-9.44.91-18.92.47-28.71.16-.94-.03-.99-1.71-.84-2.22.65-2.21,10.41-.9,10.39-9.11l-.1-55.21c-.02-9.54-7.63-7.99-9.98-9.81-6.73-5.21,22.48-2.87,24.75-3.17l48.25,54.96c.97-14.47.26-28.61.28-43.16,0-4.97-3.35-7.81-8.17-7.77-1.55-.3-2.57-.81-2.62-2.06s.78-2.18,2.61-2.18l24.44.07c1.76,0,2.44.96,2.37,2.12-.23,3.63-9.48.37-9.52,8.63l-.39,68.8c-3.4.73-6.18.66-10.18.16Z"/>
    <path class="cls-1" d="M601.8,245.85c-2.61-9.23-13.45-5.05-23.8-5.68l.22,30.51c8.66.26,17.05,1.01,25.53-.27,6.61-1,8.83-10.88,10.9-12.47.63-.48,3.19-.44,3.12.48l-1.44,19.03-64.13.17c-1.78,0-2.36-.41-2.49-1.14-.34-2,.66-2.72,2.44-2.77,5.08-.15,7.61-3.37,7.6-8.18l-.08-56.32c-.01-8.89-8.97-6.9-9.67-8.41-.31-.67-.36-3.15,1.1-3.14l63.09.14c-.45,6.39,1.03,12.72-.71,18.54-7,2.73-2.79-11.92-13.93-12.2-7.29-.19-14.14-.27-21.52.05l.19,29.15c5.79.5,11.04.09,16.69.18,9.35.15,4.32-12,11.34-8.4.28,7.42.17,14.87-.11,22.69-.04,1.15-1.79,1.05-2.4,1.01-1.18-.07-1.53-1.47-1.95-2.97Z"/>
    <path class="cls-1" d="M774.86,256.53c-1.74,25.71-37.42,25.62-56.8,18.64-.66-6.83-.47-13.27-.45-19.92,0-.75,2.57-.86,3.1-.35s1.59,1.41,1.85,2.62c2.65,12.33,14.37,18.28,26.49,15.29,5.23-1.29,9.05-5.03,10.06-10.13s-1.83-10.48-6.98-13.03l-22.42-11.12c-8.43-4.18-12.52-12.15-12.1-21.42,1-22.32,34.54-24.57,52.22-17.36.57,5.99,1.26,11.66.17,17.66-.17.91-3.27.92-3.62.27-3-5.55-4.9-18.4-21.76-15.41-5.62,1-9.96,4.03-11.02,9.4s1.6,10.15,6.93,12.72l20.86,10.07c9.3,4.49,14.15,11.97,13.47,22.06Z"/>
    <path class="cls-1" d="M418.81,277.35c-12.95,1.04-25.37.37-38.41.47-1.53.01-1.52-1.96-1.39-2.68.41-2.22,6.5-1.26,9-4.23,1.29-1.53,1.85-4.17,1.85-6.74l.16-59.53c-6.35-.64-13.12-1.16-19.58.92-4.07,1.31-4.86,10.9-5.92,11.73-.89.69-3.63.88-3.61-.54l.26-19.13h75.77c-.48,3.05,2.47,26.93-3.51,19.94-.82-.96-2.04-10.67-5.92-12.11-6.05-2.23-12.55-.95-19.49-1.12l-.16,60.99c-.01,4.73,2.88,7.99,7.63,7.8.99-.04,2.08.83,2.56.49,1.1-.77,1.77,3.65.76,3.73Z"/>
    <path class="cls-1" d="M711.51,275.18c-.51-3.02-6-.32-13.35-10.87l-17.24-24.69c8.34-2.82,14.52-7.81,16.22-14.64,1.81-7.31.53-15.38-5.39-20.39-5.75-4.86-13.61-6.74-21.25-6.77l-39.45-.17c-1.33-.01-2.59.31-2.71.96-.15.78-.45,2.32.13,2.62.48.26,1.77.58,2.33.61,4.94.29,7.37,2.96,7.35,7.75l-.09,55.72c-.02,10.28-9.02,6.75-9.98,9.83-.17.55-.09,2.34,1,2.34l34.51.07c2.06,0,2.99-.82,2.7-2.44-.5-2.71-9.6-.61-10.2-6.68-.82-8.67-.52-16.94-.03-25.45,2.4-.15,6.24-1.01,7.93,1.48l18.49,27.42c2.58,3.83,6.43,6.16,11.25,6.25,7.19.14,18.55,1.55,17.78-2.96ZM674.92,232.88c-5.45,5.29-13.08,4.64-19.09,3.6l-.07-31.95c5.99-1.07,13.69-1.42,18.85,3.48,6.43,6.1,6.95,18.44.31,24.87Z"/>
    <path class="cls-1" d="M360.74,274.39c-4.61-1.37-8.41-3.92-11.47-8.09l-19.5-26.59c8.96-2.64,15.18-7.78,17.02-14.72,2.03-7.66.27-15.95-6.02-20.89-5.73-4.5-13.24-6.35-20.59-6.35l-40.61-.02c-1.77,0-2.03,2.31-1.33,3.16,1.4,1.73,9.21-.43,9.22,7.83l.14,56.57c.03,9.88-9.06,7.27-9.91,9.83-.19.56-.28,2.55.81,2.59,12.57.43,24.53.44,36.71.03.86-.03.95-3.05.28-3.34-2.88-1.24-10.67-.51-10.24-9.13.35-7.1-.87-14.94.77-21.44,2.89-2.84,8.03.7,10.21,4.03l15.78,24.11c5.32,8.12,16.17,6.48,27.83,6.06,1.1-.03,1.68-3.38.92-3.63ZM324.53,232.93c-5.31,5.25-13.08,4.78-19.01,3.6l-.08-31.85c6-1.33,13.67-1.47,18.87,3.36,6.55,6.07,6.89,18.28.22,24.89Z"/>
    <path class="cls-1" d="M180.38,200.83c-5.87-6.09-14.63-9.04-23.08-9.09l-43.63-.32c-2.1-.01-2.89,1.06-2.55,2.58.63,2.87,10.85.29,10.87,9.88l.08,61.41c.02,9.48-8.99,7.69-10.75,9.86-.31.38-.23,2.8.44,2.81,13.33.42,26.4.5,39.95.1.87-.02.89-3.49.19-3.75-3.98-1.43-11.05-.3-11.58-7.76-.55-7.83-.49-15.29,0-23.33,16.72,2.32,38.74.45,44.64-17.68,2.82-8.67,1.69-18.2-4.57-24.71ZM163.71,231.09c-5.56,7.93-15.94,7.99-23.55,5.46l.02-37.98c7.44-1.72,17.25-2.18,22.88,4.72,5.86,7.19,6.26,19.78.65,27.79Z"/>
    <path class="cls-1" d="M271.75,275.14c-.51-2.68-7.31.38-10.89-7.66l-30.96-69.42c-1.97-1.21-7.99-2-9.06.28l-30.81,68.8c-3.77,8.4-11.54,5.12-11.16,9.15.07.81.57,1.73,2.18,1.72l26.29-.22c1.02,0,1.17-2.7.56-3.14-1.46-1.06-9.69-1.06-8.8-5.82,1.06-5.75,3.58-10.92,6.28-16.18l30.95.38c2.09,6.37,5.52,10.99,5.54,16.57.02,4.58-8.78,3.06-8.78,6.7-.01.79.73,1.65,2.4,1.65l34.93-.09c1.5-.01,1.51-1.88,1.35-2.71ZM208.13,246.17l12.13-28.63c4.63,9.78,8.8,18.5,12.47,28.51-8.18.74-16.21.65-24.6.12Z"/>
  </g>
  <g>
    <path class="cls-1" d="M688.11,130.91l-64.09-68.47c-5.39-5.76-10.21-10.86-15.65-16.21l-.08,67.53c-.01,12.34,12.53,10.53,15.41,12.25.84.5.92,4.03-.05,4.05-14.28.19-28.55.58-42.71-.16-.9-.05-.81-3.5,0-3.75,7.17-2.19,13.53-2.3,13.56-12.43l.27-78.05c.06-18.32-21.92-8.85-14.77-18.59l36.18-.06,74.77,79.62.15-62.16c.02-6.94-4.54-11.42-11.54-11.36-1.25-.62-3.01-.59-3.75-1.37s-.84-4.26.63-4.27l41.98-.39c.76,1.42.83,3.6.09,4.48-.59.7-2.42,1.09-3.9,1.08-6.26-.06-9.96,4.11-9.98,10.49l-.3,97.44c-5.58.75-9.87.18-16.23.34Z"/>
    <path class="cls-1" d="M532.04,79.04c-8.66-.3-16.92-.43-25.84,0l.21,41.02c12.79.5,25.48,1.37,38.13-.37,9.25-1.27,13.97-16.28,15.86-17.16,1.55-.72,4.43-.89,5.56.32l-4.06,27.37-98.93.04c-3.63-9.47,15.51-.65,15.46-16.97l-.25-78.71c-.02-7.33-4.49-11.93-11.63-11.88-1.26,0-2.33-1.09-3.07-1.02-1.06.1-1.18-4.56-.08-4.56l94.68-.23.33,26.59c-12.88,6.48-3.17-17.11-22.46-16.96l-29.78.23v42.22s25.21.12,25.21.12c11.17.05,9.55-11.94,12.28-12.78,1.59-.49,5.14-.88,5.17,1.3.18,11.53.47,22.25-.05,33.64-.06,1.4-3.89.85-5.02.73-3.06-.32-.88-12.54-11.69-12.91Z"/>
    <path class="cls-1" d="M440.7,119.35c-18.47,18.83-52.59,14.77-76.23,7.49l-1.28-28.58c-.07-1.45,4.61-.89,5.99-.72,2.59.32,3.95,17.99,18.37,24.86,9.9,4.72,19.97,5.14,28.83.2,5.8-3.24,9.33-8.75,9.69-14.57,1.32-21.42-32.74-22.82-51.01-36.73-14.71-11.2-15.96-32.22-2.59-45.1,15.73-15.15,48.74-13.87,68.12-6.75.94,8.5,1.87,17.2.82,25.39-.24,1.87-6.35,1.58-6.94-.27-2.71-8.46-6.3-16.36-14.33-20.7-7.95-4.3-18.26-3.5-25.78,1.2-5.64,3.53-8.01,9.52-7.76,15.54.27,6.34,4.68,11.49,11,14.2l32.95,14.09c9.74,4.17,16.6,11.93,18.5,21.06,2.31,11.12-.43,21.31-8.33,29.36Z"/>
    <path class="cls-1" d="M347.95,101.27c-.31,10.27-2.99,19.17-4.35,28.65l-95.36.05c-1.38,0-1.27-2.64-.99-3.24,1.45-3.15,14.55.02,14.55-12.77V33.85c0-6.73-3.72-11.14-10.58-11.38-1.12-.04-2.49-.94-3.29-.87-1.13.1-1.31-4.42-.18-4.42l54.98-.39c2-.01,1.77,2.27,1.76,3.18-.03,3.91-14.55.05-14.57,12.2l-.12,87.77c12.55.27,24.05,1.02,35.84-.39,10.42-1.25,14.65-16.36,16.6-18.57.78-.88,5.75-1.28,5.7.3Z"/>
    <path class="cls-1" d="M226.29,130.05l-55.53-.29c-.77,0-.48-4.28.42-3.88-2.48-1.1,13.84,1.51,13.86-12.16l.11-79.86c.01-7.06-4.45-11.56-11.42-11.6-1.16,0-2.75-.75-3.21-1.41-.6-.87-.58-3.97,1.34-3.96l55.07.22c.81,0,1.02,3.46.41,3.9-3.44,2.49-14.57-.06-14.62,11.91l-.33,80.35c-.05,13.11,12.39,10.66,14.86,12.68.77.63.61,4.11-.98,4.1Z"/>
    <path class="cls-1" d="M859.85,123.08c-12.56-1.64-20.86-9.09-29.7-19.37,11.14-11.32,12.3-30.03,26.7-28.95,1.16-1.15,1.58-4.57.39-5.46l-28.91.26c-1.45.01-1.19,1.97-1.25,2.64-.08.81.88,1.77,2.25,2,11.47,1.9-.59,20.37-4.27,24.89-8.49-7.84-15.86-15.89-23.18-24.48,7.84-3.33,15.07-7.83,18.49-15.34,3.91-8.56-.38-17.78-8.7-21-7.69-2.97-15.18-2.67-23-.65-11.95,3.09-18.51,14.64-14.45,26.56,1.52,4.45,4.41,8.02,7.52,12.26-15.86,8.06-28.18,18.57-22.11,37.25,2.67,8.21,10.93,13.97,20.72,15.56,14.21,2.31,27.25-3.49,37.26-14.07,12.89,12.23,20.24,16.98,38.26,12.91,1.51-.34,3-.42,3.86-1.08.72-.55.97-3.57.12-3.93ZM793.46,43c4.37-2.42,9.85-1.71,13.11,2.77,3.16,4.33,3.77,10,1.54,15.1-1.48,3.39-6.08,8.8-10.29,8.56-5.01-3.03-7.95-9.57-9.42-14.73-1.47-5.15,1.22-9.57,5.06-11.7ZM803.89,116.96c-9.93,5.07-21.83,1.58-26.68-8.44-4.51-9.33-.23-21.81,9.95-26.32l26.2,28.57c-2.54,2.75-5.95,4.4-9.48,6.19Z"/>
    <path class="cls-1" d="M154.8,4.76c-.28,1.04-2.62,1.38-4.13,1.47-7.23.39-11.46,4.87-11.48,12.25l-.36,111.12c-5.1.19-11.63,1.23-16.95-.17L32.86,33.49c-1.19.9-1.3,2.38-1.3,4.41l.17,72.3c.02,8.46,5.39,13.07,13.78,13.28,1.22.02,3.09.66,3.67,1.38.56.7.45,3.67-.64,3.67H1.23c-1.25,0-1.32-3.03-.65-3.6,3.26-2.76,16.19-.35,16.26-14.49l.47-86.64c.02-4.26-1.14-8.48-3.59-11.97C6.48,1.52-1.29,12.21.18.24l38.19-.24,85.91,92.14.24-72.77c.02-7.55-4.64-12.44-12.16-12.75-1.64-.7-3.67-.64-4.87-1.38-1.07-.66-1.29-4.77-.09-4.95l46.53-.12c1.66,0,1.14,3.55.87,4.58Z"/>
  </g>
</svg>